HIERARCHY
ROOT Hips
{
	OFFSET -0.001795 -0.223333 0.028219
	CHANNELS 6 Xposition Yposition Zposition Zrotation Yrotation Xrotation 
	JOINT LeftUpLeg
	{
		OFFSET 0.069520 -0.091406 -0.006815
		CHANNELS 3 Zrotation Yrotation Xrotation
		JOINT LeftLeg
		{
			OFFSET 0.034277 -0.375199 -0.004496
			CHANNELS 3 Zrotation Yrotation Xrotation
			JOINT LeftFoot
			{
				OFFSET -0.013596 -0.397961 -0.043693
				CHANNELS 3 Zrotation Yrotation Xrotation
				JOINT LeftToe
				{
					OFFSET 0.026358 -0.055791 0.119288
					CHANNELS 3 Zrotation Yrotation Xrotation
					End Site
					{
						OFFSET 0.000000 0.000000 0.000000
					}
				}
			}
		}
	}
	JOINT RightUpLeg
	{
		OFFSET -0.067670 -0.090522 -0.004320
		CHANNELS 3 Zrotation Yrotation Xrotation
		JOINT RightLeg
		{
			OFFSET -0.038290 -0.382569 -0.008850
			CHANNELS 3 Zrotation Yrotation Xrotation
			JOINT RightFoot
			{
				OFFSET 0.015774 -0.398415 -0.042312
				CHANNELS 3 Zrotation Yrotation Xrotation
				JOINT RightToe
				{
					OFFSET -0.025372 -0.048144 0.123348
					CHANNELS 3 Zrotation Yrotation Xrotation
					End Site
					{
						OFFSET 0.000000 0.000000 0.000000
					}
				}
			}
		}
	}
	JOINT Spine
	{
		OFFSET -0.002533 0.108963 -0.026696
		CHANNELS 3 Zrotation Yrotation Xrotation
		JOINT Spine1
		{
			OFFSET 0.005487 0.135180 0.001092
			CHANNELS 3 Zrotation Yrotation Xrotation
			JOINT Spine2
			{
				OFFSET 0.001457 0.052922 0.025425
				CHANNELS 3 Zrotation Yrotation Xrotation
				JOINT Neck
				{
					OFFSET -0.002778 0.213870 -0.042857
					CHANNELS 3 Zrotation Yrotation Xrotation
					JOINT Head
					{
						OFFSET 0.005152 0.064970 0.051349
						CHANNELS 3 Zrotation Yrotation Xrotation
						End Site
						{
							OFFSET 0.000000 0.000000 0.000000
						}
					}
				}
				JOINT LeftShoulder
				{
					OFFSET 0.078845 0.121749 -0.034090
					CHANNELS 3 Zrotation Yrotation Xrotation
					JOINT LeftArm
					{
						OFFSET 0.090977 0.030469 -0.008868
						CHANNELS 3 Zrotation Yrotation Xrotation
						JOINT LeftForeArm
						{
							OFFSET 0.259612 -0.012772 -0.027456
							CHANNELS 3 Zrotation Yrotation Xrotation
							JOINT LeftHand
							{
								OFFSET 0.249234 0.008986 -0.001171
								CHANNELS 3 Zrotation Yrotation Xrotation
								End Site
								{
									OFFSET 0.000000 0.000000 0.000000
								}
							}
						}
					}
				}
				JOINT RightShoulder
				{
					OFFSET -0.081759 0.118833 -0.038615
					CHANNELS 3 Zrotation Yrotation Xrotation
					JOINT RightArm
					{
						OFFSET -0.096012 0.032551 -0.009143
						CHANNELS 3 Zrotation Yrotation Xrotation
						JOINT RightForeArm
						{
							OFFSET -0.253742 -0.013329 -0.021401
							CHANNELS 3 Zrotation Yrotation Xrotation
							JOINT RightHand
							{
								OFFSET -0.255298 0.007772 -0.005559
								CHANNELS 3 Zrotation Yrotation Xrotation
								End Site
								{
									OFFSET 0.000000 0.000000 0.000000
								}
							}
						}
					}
				}
			}
		}
	}
}
MOTION
Frames: 12
Frame Time: 0.050000
0.000000 0.946063 0.000000 -0.613837 -3.736814 6.126076 5.147659 -0.280490 -3.786638 -0.400683 0.146134 -3.312222 0.108067 2.917771 7.402471 0.000000 0.000000 0.000000 -2.234920 0.509200 -5.115429 -1.540648 0.000853 -2.788963 1.424230 -1.175534 8.446229 0.000000 0.000000 0.000000 5.269983 0.298409 -4.971661 -2.585717 1.165357 -5.608309 -3.201147 4.807076 6.788748 7.254043 -3.267522 -14.223173 0.000000 0.000000 0.000000 -16.734791 -0.273861 -2.107084 -54.988713 -5.818060 -4.008393 -10.393575 -20.392859 2.518133 0.000000 0.000000 0.000000 14.562562 -7.221703 -4.303003 62.252499 2.085918 -4.967689 11.177866 23.245059 3.089508 0.000000 0.000000 0.000000 
0.000049 0.945058 0.001237 -0.867967 -4.117262 7.015609 5.591443 -0.271045 -3.523773 -0.596078 0.208331 -4.792903 0.365120 3.389123 7.531584 0.000000 0.000000 0.000000 -2.304503 0.588466 -6.008365 -1.383779 0.011432 -2.324549 1.721568 -0.746635 8.759172 0.000000 0.000000 0.000000 6.018246 0.368433 -5.698919 -2.998529 1.334766 -5.088653 -3.823054 5.489033 5.562600 8.090429 -3.630581 -14.659331 0.000000 0.000000 0.000000 -17.935805 -0.109164 -2.546254 -53.512657 -5.965831 -3.651760 -10.871841 -20.483406 2.571990 0.000000 0.000000 0.000000 14.471229 -8.536415 -4.874117 63.027100 0.783880 -5.526298 11.504939 23.215835 3.167810 0.000000 0.000000 0.000000 
-0.000033 0.944593 0.002172 -0.467223 -3.742086 6.757878 5.235765 -0.283396 -3.698598 -0.441854 0.156054 -3.519133 0.042107 2.464463 6.408614 0.000000 0.000000 0.000000 -2.284073 0.576757 -5.900083 -1.887771 0.059695 -2.167887 0.959335 -2.172965 8.502372 0.000000 0.000000 0.000000 5.722293 0.348774 -5.536279 -2.552709 1.146388 -5.924162 -4.261920 5.192746 5.933234 7.520338 -3.448659 -13.709318 0.000000 0.000000 0.000000 -17.428883 -0.388576 -2.305900 -53.708004 -5.554670 -3.907098 -11.097600 -20.333633 2.598767 0.000000 0.000000 0.000000 15.544709 -7.630529 -4.554314 61.789797 0.519510 -5.658757 11.005720 23.516808 3.116858 0.000000 0.000000 0.000000 
-0.000241 0.944301 0.003181 -0.464274 -3.471494 7.261724 5.806060 -0.298457 -3.999712 -1.008478 0.217512 -4.076582 -0.381959 1.961184 7.187466 0.000000 0.000000 0.000000 -2.289224 0.628676 -6.504568 -1.850499 0.049303 -2.312285 0.724892 -2.755554 8.793544 0.000000 0.000000 0.000000 5.778587 0.387418 -6.049251 -2.611487 1.178152 -5.323917 -4.075081 4.694741 4.691375 7.777365 -3.826530 -12.480106 0.000000 0.000000 0.000000 -17.591930 0.407983 -2.698919 -53.844341 -5.699798 -3.731145 -10.692439 -19.987557 2.482646 0.000000 0.000000 0.000000 14.479454 -8.119521 -4.741687 61.975132 -0.092544 -5.831114 11.928247 23.524015 3.261257 0.000000 0.000000 0.000000 
-0.000520 0.944358 0.004075 -0.325289 -3.292112 7.058900 5.457014 -0.304385 -4.043355 -0.552448 0.173058 -3.790813 -0.279536 2.210637 7.315704 0.000000 0.000000 0.000000 -2.367452 0.608279 -6.283572 -1.926294 0.052544 -2.372799 0.298750 -3.476883 8.467056 0.000000 0.000000 0.000000 5.620043 0.380091 -5.983754 -2.383971 1.088010 -5.066489 -4.147427 4.668571 4.463629 7.368691 -3.606894 -12.122886 0.000000 0.000000 0.000000 -17.416885 0.328001 -2.659610 -53.612707 -5.655813 -3.715520 -11.270193 -20.057669 2.584940 0.000000 0.000000 0.000000 14.358869 -8.314255 -4.809595 61.839749 -0.286983 -5.887238 11.937540 23.547503 3.269093 0.000000 0.000000 0.000000 
-0.000786 0.944367 0.004852 -0.174993 -3.106952 7.223682 5.444197 -0.316989 -4.230351 -0.772749 0.191951 -3.844914 -0.191519 2.409371 7.382001 0.000000 0.000000 0.000000 -2.407684 0.618048 -6.403323 -2.150924 0.064085 -2.480494 0.074764 -4.062323 8.819322 0.000000 0.000000 0.000000 5.487013 0.380277 -6.066386 -2.359433 1.079186 -5.083465 -4.034774 4.529718 4.319319 7.351338 -3.671972 -11.683523 0.000000 0.000000 0.000000 -17.769026 0.896507 -2.997913 -53.093549 -5.463272 -3.735706 -11.252932 -20.361568 2.620913 0.000000 0.000000 0.000000 14.205932 -8.191486 -4.738694 61.790099 -0.293085 -5.866000 11.621658 23.361008 3.171696 0.000000 0.000000 0.000000 
-0.000963 0.944333 0.005355 -0.077135 -2.977093 7.165181 5.254067 -0.323942 -4.305428 -0.550825 0.173781 -3.829017 -0.176179 2.611399 7.861232 0.000000 0.000000 0.000000 -2.409320 0.614225 -6.366066 -2.298013 0.084811 -2.327883 0.098172 -3.926769 8.637891 0.000000 0.000000 0.000000 5.500144 0.367507 -5.929430 -2.370081 1.086209 -4.934369 -4.131040 4.317990 4.301601 7.379692 -3.642361 -12.008296 0.000000 0.000000 0.000000 -17.693974 1.192446 -3.109154 -53.044183 -5.053001 -3.917028 -11.456797 -20.577240 2.690448 0.000000 0.000000 0.000000 14.062160 -8.317563 -4.800202 61.984953 -0.276215 -5.873205 11.523985 23.408025 3.153566 0.000000 0.000000 0.000000 
-0.001077 0.944421 0.005723 -0.043875 -2.746483 7.298087 5.163380 -0.343631 -4.622191 -0.488800 0.162745 -3.636852 -0.162511 2.547638 7.538916 0.000000 0.000000 0.000000 -2.387522 0.626451 -6.514294 -2.389455 0.104501 -2.131767 0.000883 -4.033939 8.467937 0.000000 0.000000 0.000000 5.499071 0.363962 -5.940548 -2.374572 1.091013 -4.795494 -4.165838 4.195875 4.203582 7.358222 -3.666821 -11.764808 0.000000 0.000000 0.000000 -17.736339 1.503231 -3.280233 -52.754297 -4.665912 -4.049379 -11.480853 -20.701863 2.709100 0.000000 0.000000 0.000000 14.131382 -8.543561 -4.922146 61.984635 -0.112925 -5.774645 11.123535 22.937290 3.003856 0.000000 0.000000 0.000000 
-0.001177 0.944460 0.006022 0.038993 -2.712875 7.331729 5.008392 -0.355565 -4.805919 -0.471528 0.155930 -3.461729 -0.045046 2.746299 7.484016 0.000000 0.000000 0.000000 -2.412552 0.634609 -6.618284 -2.326217 0.102784 -2.077660 -0.044907 -4.072127 8.335051 0.000000 0.000000 0.000000 5.511781 0.357518 -5.878925 -2.373265 1.090228 -4.917930 -4.165761 4.199684 4.485022 7.343264 -3.654787 -11.814894 0.000000 0.000000 0.000000 -17.567814 1.722027 -3.356556 -52.924090 -4.482746 -4.175954 -11.314811 -20.516034 2.657604 0.000000 0.000000 0.000000 14.126225 -8.787621 -5.036565 61.924354 -0.006804 -5.739070 10.912379 22.815867 2.951002 0.000000 0.000000 0.000000 
-0.001296 0.944616 0.006341 0.129436 -2.655929 7.410588 4.878145 -0.364116 -4.900808 -0.515709 0.161996 -3.544364 -0.026146 2.781483 7.471610 0.000000 0.000000 0.000000 -2.563099 0.646369 -6.781548 -2.197186 0.093904 -2.055273 -0.080913 -4.142308 8.341708 0.000000 0.000000 0.000000 5.519562 0.359656 -5.922341 -2.404592 1.103857 -4.918840 -4.131806 4.163658 4.645093 7.259337 -3.592518 -11.882893 0.000000 0.000000 0.000000 -17.505967 1.883167 -3.419585 -53.078826 -4.530298 -4.185679 -11.035270 -20.083849 2.554451 0.000000 0.000000 0.000000 13.951855 -8.894039 -5.063758 62.164881 0.322817 -5.597141 10.382438 22.272673 2.774225 0.000000 0.000000 0.000000 
-0.001430 0.944702 0.006707 0.231760 -2.648917 7.433719 4.834043 -0.365341 -4.897985 -0.600036 0.170370 -3.596732 0.031327 2.892550 7.488686 0.000000 0.000000 0.000000 -2.629829 0.653448 -6.880275 -2.185389 0.096358 -1.997257 -0.067144 -4.125688 8.374118 0.000000 0.000000 0.000000 5.528550 0.355318 -5.881584 -2.447969 1.122341 -4.874469 -4.206176 4.135340 4.674839 7.285510 -3.619749 -11.834941 0.000000 0.000000 0.000000 -17.543615 1.908152 -3.435519 -53.120422 -4.348639 -4.270766 -10.515990 -19.578991 2.402143 0.000000 0.000000 0.000000 13.986755 -8.915863 -5.081056 62.236098 0.493935 -5.516962 10.040601 21.796308 2.644004 0.000000 0.000000 0.000000 
-0.001566 0.944650 0.007134 0.285699 -2.570069 7.558559 4.888431 -0.368183 -4.926277 -0.746357 0.186855 -3.767355 0.011362 2.881398 7.545847 0.000000 0.000000 0.000000 -2.720909 0.649542 -6.836381 -2.119734 0.085501 -2.096453 -0.150011 -4.324837 8.470375 0.000000 0.000000 0.000000 5.506221 0.361180 -5.984706 -2.435367 1.118177 -4.767911 -4.270872 4.150005 4.528452 7.203533 -3.573723 -11.724195 0.000000 0.000000 0.000000 -17.433872 2.001364 -3.485192 -53.353649 -4.318620 -4.291257 -10.036360 -19.055271 2.253291 0.000000 0.000000 0.000000 13.753906 -9.140312 -5.149092 62.475290 0.452079 -5.524182 9.923152 21.398345 2.568491 0.000000 0.000000 0.000000 
